<mxfile host="app.diagrams.net" modified="2024-02-26T07:01:34.266Z" agent="Mozilla/5.0 (Windows NT 10.0; Win64; x64) AppleWebKit/537.36 (KHTML, like Gecko) Chrome/122.0.0.0 Safari/537.36" etag="0KTPTP71p94x_w7iw5VD" version="23.1.6" type="device">
  <diagram name="Trang-1" id="8W09cwZEpCRHeRL8hXEG">
    <mxGraphModel dx="1050" dy="557" grid="1" gridSize="10" guides="1" tooltips="1" connect="1" arrows="1" fold="1" page="1" pageScale="1" pageWidth="827" pageHeight="1169" math="0" shadow="0">
      <root>
        <mxCell id="0" />
        <mxCell id="1" parent="0" />
        <mxCell id="ivQZp6cYdDks4oxAI8r--1" value="i=1" style="rounded=0;whiteSpace=wrap;html=1;" vertex="1" parent="1">
          <mxGeometry x="350" y="30" width="80" height="70" as="geometry" />
        </mxCell>
        <mxCell id="ivQZp6cYdDks4oxAI8r--4" value="" style="endArrow=classic;html=1;rounded=0;exitX=0.5;exitY=1;exitDx=0;exitDy=0;entryX=0.5;entryY=0;entryDx=0;entryDy=0;" edge="1" parent="1" source="ivQZp6cYdDks4oxAI8r--1" target="ivQZp6cYdDks4oxAI8r--5">
          <mxGeometry width="50" height="50" relative="1" as="geometry">
            <mxPoint x="390" y="120" as="sourcePoint" />
            <mxPoint x="390" y="160" as="targetPoint" />
          </mxGeometry>
        </mxCell>
        <mxCell id="ivQZp6cYdDks4oxAI8r--5" value="i&amp;lt;=10" style="rhombus;whiteSpace=wrap;html=1;" vertex="1" parent="1">
          <mxGeometry x="350" y="150" width="80" height="80" as="geometry" />
        </mxCell>
        <mxCell id="ivQZp6cYdDks4oxAI8r--6" value="i%2=0" style="rhombus;whiteSpace=wrap;html=1;" vertex="1" parent="1">
          <mxGeometry x="350" y="260" width="80" height="80" as="geometry" />
        </mxCell>
        <mxCell id="ivQZp6cYdDks4oxAI8r--7" value="" style="endArrow=classic;html=1;rounded=0;entryX=0.5;entryY=0;entryDx=0;entryDy=0;" edge="1" parent="1" target="ivQZp6cYdDks4oxAI8r--6">
          <mxGeometry width="50" height="50" relative="1" as="geometry">
            <mxPoint x="390" y="230" as="sourcePoint" />
            <mxPoint x="440" y="170" as="targetPoint" />
          </mxGeometry>
        </mxCell>
        <mxCell id="ivQZp6cYdDks4oxAI8r--8" value="" style="endArrow=classic;html=1;rounded=0;exitX=0;exitY=0.5;exitDx=0;exitDy=0;entryX=1;entryY=0.5;entryDx=0;entryDy=0;" edge="1" parent="1" source="ivQZp6cYdDks4oxAI8r--5" target="ivQZp6cYdDks4oxAI8r--11">
          <mxGeometry width="50" height="50" relative="1" as="geometry">
            <mxPoint x="390" y="220" as="sourcePoint" />
            <mxPoint x="300" y="190" as="targetPoint" />
          </mxGeometry>
        </mxCell>
        <mxCell id="ivQZp6cYdDks4oxAI8r--10" value="" style="endArrow=classic;html=1;rounded=0;exitX=0.5;exitY=1;exitDx=0;exitDy=0;entryX=0.5;entryY=1;entryDx=0;entryDy=0;" edge="1" parent="1" source="ivQZp6cYdDks4oxAI8r--6" target="ivQZp6cYdDks4oxAI8r--13">
          <mxGeometry width="50" height="50" relative="1" as="geometry">
            <mxPoint x="360" y="200" as="sourcePoint" />
            <mxPoint x="650" y="330" as="targetPoint" />
            <Array as="points">
              <mxPoint x="390" y="400" />
              <mxPoint x="655" y="400" />
            </Array>
          </mxGeometry>
        </mxCell>
        <mxCell id="ivQZp6cYdDks4oxAI8r--11" value="End" style="ellipse;whiteSpace=wrap;html=1;" vertex="1" parent="1">
          <mxGeometry x="240" y="160" width="80" height="60" as="geometry" />
        </mxCell>
        <mxCell id="ivQZp6cYdDks4oxAI8r--12" value="i" style="shape=parallelogram;perimeter=parallelogramPerimeter;whiteSpace=wrap;html=1;fixedSize=1;" vertex="1" parent="1">
          <mxGeometry x="470" y="280" width="70" height="40" as="geometry" />
        </mxCell>
        <mxCell id="ivQZp6cYdDks4oxAI8r--13" value="i++" style="rounded=0;whiteSpace=wrap;html=1;" vertex="1" parent="1">
          <mxGeometry x="610" y="270" width="90" height="50" as="geometry" />
        </mxCell>
        <mxCell id="ivQZp6cYdDks4oxAI8r--14" value="" style="endArrow=classic;html=1;rounded=0;exitX=1;exitY=0.5;exitDx=0;exitDy=0;" edge="1" parent="1" source="ivQZp6cYdDks4oxAI8r--6" target="ivQZp6cYdDks4oxAI8r--12">
          <mxGeometry width="50" height="50" relative="1" as="geometry">
            <mxPoint x="390" y="220" as="sourcePoint" />
            <mxPoint x="440" y="170" as="targetPoint" />
          </mxGeometry>
        </mxCell>
        <mxCell id="ivQZp6cYdDks4oxAI8r--15" value="" style="endArrow=classic;html=1;rounded=0;exitX=1;exitY=0.5;exitDx=0;exitDy=0;" edge="1" parent="1" source="ivQZp6cYdDks4oxAI8r--12">
          <mxGeometry width="50" height="50" relative="1" as="geometry">
            <mxPoint x="390" y="220" as="sourcePoint" />
            <mxPoint x="610" y="300" as="targetPoint" />
          </mxGeometry>
        </mxCell>
        <mxCell id="ivQZp6cYdDks4oxAI8r--20" value="Đúng" style="text;html=1;align=center;verticalAlign=middle;resizable=0;points=[];autosize=1;strokeColor=none;fillColor=none;" vertex="1" parent="1">
          <mxGeometry x="485" y="408" width="50" height="30" as="geometry" />
        </mxCell>
        <mxCell id="ivQZp6cYdDks4oxAI8r--21" value="Đúng" style="text;html=1;align=center;verticalAlign=middle;resizable=0;points=[];autosize=1;strokeColor=none;fillColor=none;" vertex="1" parent="1">
          <mxGeometry x="389" y="230" width="50" height="30" as="geometry" />
        </mxCell>
        <mxCell id="ivQZp6cYdDks4oxAI8r--22" value="Sai" style="text;html=1;align=center;verticalAlign=middle;resizable=0;points=[];autosize=1;strokeColor=none;fillColor=none;" vertex="1" parent="1">
          <mxGeometry x="320" y="160" width="40" height="30" as="geometry" />
        </mxCell>
        <mxCell id="ivQZp6cYdDks4oxAI8r--23" value="Sai" style="text;html=1;align=center;verticalAlign=middle;resizable=0;points=[];autosize=1;strokeColor=none;fillColor=none;" vertex="1" parent="1">
          <mxGeometry x="550" y="270" width="40" height="30" as="geometry" />
        </mxCell>
      </root>
    </mxGraphModel>
  </diagram>
</mxfile>
